<svg viewBox="0 0 32 32" xmlns="http://www.w3.org/2000/svg" width="24" role="presentation" alt="" data-testid="FilterIcon" color="white" size="24"><path d="M28.5 3.5H3.641a2.598 2.598 0 0 0-2.602 2.052A2.502 2.502 0 0 0 3.5 8.5h24.837a2.609 2.609 0 0 0 2.66-2.387A2.496 2.496 0 0 0 28.5 3.5zm-4 10H7.641a2.598 2.598 0 0 0-2.602 2.052A2.502 2.502 0 0 0 7.5 18.5h16.837a2.609 2.609 0 0 0 2.66-2.387A2.496 2.496 0 0 0 24.5 13.5zm-4 10h-8.859a2.598 2.598 0 0 0-2.602 2.052A2.502 2.502 0 0 0 11.5 28.5h8.837a2.609 2.609 0 0 0 2.66-2.387A2.496 2.496 0 0 0 20.5 23.5z" fill="currentColor" fill-rule="evenodd"></path></svg>