<svg data-name="Share" viewBox="0 0 34 48" fill="white" xmlns="http://www.w3.org/2000/svg" width="24" role="presentation" alt="" data-testid="ShareIcon" color="white" size="24"><path d="M5.04998 47.15C3.74998 47.15 2.64164 46.6916 1.72498 45.775C0.808309 44.8583 0.349976 43.75 0.349976 42.45V20.2C0.349976 18.9 0.808309 17.7916 1.72498 16.875C2.64164 15.9583 3.74998 15.5 5.04998 15.5H11.6V20.2H5.04998V42.45H28.95V20.2H22.3V15.5H28.95C30.25 15.5 31.3666 15.9583 32.3 16.875C33.2333 17.7916 33.7 18.9 33.7 20.2V42.45C33.7 43.75 33.2333 44.8583 32.3 45.775C31.3666 46.6916 30.25 47.15 28.95 47.15H5.04998ZM14.6 31.95V9.89997L10.2 14.3L6.84998 11L16.95 0.849976L27.05 11L23.7 14.3L19.3 9.89997V31.95H14.6Z" fill="currentColor"></path></svg>